<?xml version="1.0" encoding="UTF-8"?>
<svg width="24px" height="24px" viewBox="0 0 24 24" version="1.1" xmlns="http://www.w3.org/2000/svg" xmlns:xlink="http://www.w3.org/1999/xlink">
    <title>Ico_promos</title>
    <g id="Ico_promos" stroke="none" stroke-width="1" fill="none" fill-rule="evenodd">
        <g id="Group-20" fill="#000000" fill-rule="nonzero">
            <path d="M19.0731628,3.31549142 C19.4504878,3.34947359 19.7612502,3.61476064 19.8598568,3.97170037 L19.8846683,4.09388325 L20.6729859,10.0555851 C20.6963059,10.2319439 20.6515017,10.409138 20.5501028,10.5521692 L20.4825644,10.6336084 L8.87936506,22.649073 C8.63319014,22.9039946 8.24030817,22.9317378 7.96233244,22.7277361 L7.88956634,22.66635 L0.98390426,15.9976297 C0.728982669,15.7514548 0.701239506,15.3585728 0.905241248,15.0805971 L0.966627259,15.007831 L12.5704031,2.99176929 C12.6930206,2.86479514 12.858055,2.78977997 13.031746,2.77929709 L13.1367294,2.78085183 L19.0731628,3.31549142 Z M18.9026757,4.30312513 L13.1900287,3.78968479 L1.89488359,15.4861499 L8.36894179,21.7380753 L19.6626976,10.0430488 L18.9026757,4.30312513 Z M16.940586,6.38387346 C17.5365066,6.9593473 17.553082,7.90895011 16.9776081,8.50487072 C16.4021343,9.10079132 15.4525315,9.1173667 14.8566109,8.54189286 C14.2606903,7.96641902 14.2441149,7.01681621 14.8195887,6.42089561 C15.3950626,5.824975 16.3446654,5.80839962 16.940586,6.38387346 Z M16.2459276,7.10321326 C16.0472874,6.91138865 15.7307531,6.91691377 15.5389285,7.11555398 C15.3471039,7.31419418 15.352629,7.63072845 15.5512692,7.82255306 C15.7499094,8.01437767 16.0664437,8.00885255 16.2582683,7.81021235 C16.4500929,7.61157215 16.4445678,7.29503787 16.2459276,7.10321326 Z" id="Shape"></path>
            <path d="M12.0285188,11.6688196 C11.7699625,11.9365625 11.6436575,12.2407673 11.6496039,12.5814338 C11.6547007,12.8734337 11.7582551,13.1374795 11.9602669,13.3735711 L12.0694776,13.4892875 L12.2905212,13.7027467 C12.5727927,13.9753332 12.8853352,14.1116954 13.2281484,14.1118333 C13.5709617,14.111971 13.8756551,13.9740173 14.1422287,13.6979724 C14.4047936,13.4260784 14.5315462,13.1182949 14.5224866,12.7746219 C14.5147212,12.4800451 14.4104044,12.215263 14.2095362,11.9802758 L14.1010562,11.865265 L13.8831259,11.6548122 C13.5946278,11.3762128 13.2785422,11.2414429 12.9348692,11.2505026 C12.5911962,11.2595622 12.2890794,11.3990012 12.0285188,11.6688196 Z M12.4021135,12.0295959 C12.5504326,11.8760069 12.7210941,11.8041598 12.9140979,11.8140544 C13.068501,11.8219701 13.212948,11.8767472 13.3474389,11.9783856 L13.4464402,12.0634009 L13.6737104,12.2828731 C13.8439035,12.4472267 13.9388333,12.6251373 13.9584997,12.8166049 C13.9781661,13.0080724 13.9138398,13.1806007 13.7655206,13.3341896 C13.6172015,13.4877786 13.4470233,13.5580869 13.2549861,13.5451146 C13.1013562,13.5347368 12.9573732,13.4784824 12.823037,13.3763516 L12.7240936,13.2911516 L12.4968234,13.0716794 C12.3204037,12.9013128 12.2249372,12.7218812 12.210424,12.5333845 C12.1959108,12.3448878 12.2598073,12.1769583 12.4021135,12.0295959 Z M9.75407739,9.72511443 L11.1594015,15.3600246 L11.6805579,15.2315561 L10.2752337,9.59664597 L9.75407739,9.72511443 Z M7.34092187,11.4078311 C7.08036126,11.6776495 6.95409189,11.9838941 6.96211377,12.326565 C6.96898967,12.6202829 7.07279817,12.8845741 7.27353925,13.1194386 L7.38198751,13.2344186 L7.60303106,13.4478779 C7.89152922,13.7264774 8.20713152,13.8627861 8.54983797,13.8568041 C8.89254443,13.8508222 9.19518012,13.7118842 9.45774505,13.4399903 C9.72030998,13.1680963 9.8475815,12.8608139 9.83955962,12.5181431 C9.83268372,12.2244252 9.72887523,11.960134 9.52813414,11.7252695 L9.41968588,11.6102894 L9.19552904,11.3938237 C8.90703089,11.1152242 8.59094531,10.9804543 8.2472723,10.989514 C7.9035993,10.9985736 7.60148249,11.1380127 7.34092187,11.4078311 Z M7.71451661,11.7686073 C7.86283573,11.6150184 8.0334972,11.5431712 8.22650103,11.5530658 C8.38090409,11.5609815 8.52601523,11.6164 8.66183445,11.7193212 L8.76195663,11.8054188 L8.99234005,12.0278975 C9.16668425,12.1962597 9.26062968,12.376228 9.27417633,12.5678024 C9.28772298,12.7593768 9.22334321,12.9288452 9.08103703,13.0762076 C8.93472222,13.227721 8.76608286,13.2985126 8.57511896,13.2885823 C8.42234783,13.2806382 8.27821585,13.2252026 8.14272302,13.1222758 L8.04272323,13.036176 L7.81233981,12.8136973 C7.63592008,12.6433307 7.53943365,12.4639169 7.52288054,12.2754558 C7.50632742,12.0869947 7.57020611,11.9180452 7.71451661,11.7686073 Z" id="Shape"></path>
        </g>
    </g>
</svg>