<?xml version="1.0" encoding="UTF-8"?>
<svg width="24px" height="24px" viewBox="0 0 24 24" version="1.1" xmlns="http://www.w3.org/2000/svg" xmlns:xlink="http://www.w3.org/1999/xlink">
    <title>Ico_sushi</title>
    <g id="Ico_sushi" stroke="none" stroke-width="1" fill="none" fill-rule="evenodd">
        <g id="sushi-ico" fill="#000000" fill-rule="nonzero">
            <g id="sushi-" transform="translate(2.000000, 2.000000)">
                <path d="M5.54997618,7.82445288 C8.56478819,7.82445288 11.0499762,8.81852807 11.0499762,10.3244529 L11.0499762,16.3244529 C11.0499762,17.8303777 8.56478819,18.8244529 5.54997618,18.8244529 C2.74372101,18.8244529 0.390929613,17.9606232 0.081037003,16.5928435 L0.057478164,16.4589167 L0.0499761764,16.3244529 L0.0499761764,10.3244529 L0.0563758713,10.1929178 C0.196621857,8.76091299 2.6238351,7.82445288 5.54997618,7.82445288 Z M5.54997618,8.82445288 C3.0419407,8.82445288 1.04997618,9.62123869 1.04997618,10.3244529 C1.04997618,11.0276671 3.0419407,11.8244529 5.54997618,11.8244529 C5.6329145,11.8244529 5.71531771,11.8235794 5.79712944,11.8218651 C8.10513596,11.773587 9.92090616,11.0564892 10.0433873,10.3950728 L10.0459762,10.3694529 L10.0497868,10.3125588 C10.0282617,9.63576078 8.17466929,8.87717428 5.79900483,8.82707586 L5.54997618,8.82445288 Z M5.54997618,9.78847031 C6.65454568,9.78847031 7.54997618,10.0345842 7.54997618,10.3381811 C7.54997618,10.641778 6.65454568,10.8878919 5.54997618,10.8878919 C4.44540668,10.8878919 3.54997618,10.641778 3.54997618,10.3381811 C3.54997618,10.0345842 4.44540668,9.78847031 5.54997618,9.78847031 Z" id="Combined-Shape"></path>
                <path d="M15.2602539,3.6484375 C18.2750659,3.6484375 20.7602539,4.64251269 20.7602539,6.1484375 L20.7602539,12.1484375 C20.7602539,13.6543623 18.2750659,14.6484375 15.2602539,14.6484375 C12.4539987,14.6484375 10.1012073,13.7846078 9.79131473,12.4168282 L9.76775589,12.2829013 L9.76025391,12.1484375 L9.76055981,10.8063333 C9.94778777,10.6478032 10.0499762,10.4837279 10.0499762,10.3244529 C10.0499762,10.1651779 9.94778777,10.0011026 9.76055981,9.84257242 L9.76025391,6.1484375 L9.7666536,6.01690238 C9.90689959,4.58489761 12.3341128,3.6484375 15.2602539,3.6484375 Z M15.2602539,4.6484375 C12.7522184,4.6484375 10.7602539,5.44522331 10.7602539,6.1484375 C10.7602539,6.85165169 12.7522184,7.6484375 15.2602539,7.6484375 C15.3431922,7.6484375 15.4255954,7.64756398 15.5074072,7.64584972 C17.8154137,7.59757163 19.6311839,6.88047385 19.7536651,6.21905747 L19.7562539,6.1934375 L19.7600645,6.13654344 C19.7385394,5.4597454 17.884947,4.7011589 15.5092826,4.65106048 L15.2602539,4.6484375 Z M15.2602539,5.61245493 C16.3648234,5.61245493 17.2602539,5.85856883 17.2602539,6.16216572 C17.2602539,6.4657626 16.3648234,6.7118765 15.2602539,6.7118765 C14.1556844,6.7118765 13.2602539,6.4657626 13.2602539,6.16216572 C13.2602539,5.85856883 14.1556844,5.61245493 15.2602539,5.61245493 Z" id="Combined-Shape-Copy-5"></path>
                <path d="M6.80704932,0.700968553 C9.82186134,0.700968553 12.3070493,1.69504375 12.3070493,3.20096855 L12.3064,5.05629838 C11.3561257,5.35122198 10.7602539,5.76382514 10.7602539,6.1484375 C10.7602539,6.53304986 11.3561257,6.94565302 12.3064,7.24057662 L12.3070493,9.20096855 C12.3070493,10.6257479 10.0824701,11.5923526 7.28948182,11.6923851 C8.91979205,11.4369219 10.0499762,10.8541425 10.0499762,10.3244529 C10.0499762,9.62123869 8.05801166,8.82445288 5.54997618,8.82445288 C3.70517675,8.82445288 2.13959337,9.25554745 1.44058213,9.76340421 C1.39498277,9.66851593 1.36098222,9.57031018 1.33811015,9.46935922 L1.31455131,9.33543233 L1.30704932,9.20096855 L1.30704932,3.20096855 L1.31344902,3.06943343 C1.453695,1.63742866 3.88090825,0.700968553 6.80704932,0.700968553 Z M6.80704932,1.70096855 C4.29901384,1.70096855 2.30704932,2.49775436 2.30704932,3.20096855 C2.30704932,3.90418274 4.29901384,4.70096855 6.80704932,4.70096855 C6.88998765,4.70096855 6.97239086,4.70009503 7.05420258,4.69838077 C9.3622091,4.65010268 11.1779793,3.9330049 11.3004605,3.27158852 L11.3030493,3.24596855 L11.3068599,3.18907449 C11.2853349,2.51227646 9.43174243,1.75368995 7.05607797,1.70359153 L6.80704932,1.70096855 Z M6.80704932,2.66498598 C7.91161882,2.66498598 8.80704932,2.91109988 8.80704932,3.21469677 C8.80704932,3.51829365 7.91161882,3.76440756 6.80704932,3.76440756 C5.70247982,3.76440756 4.80704932,3.51829365 4.80704932,3.21469677 C4.80704932,2.91109988 5.70247982,2.66498598 6.80704932,2.66498598 Z" id="Combined-Shape-Copy-6"></path>
            </g>
        </g>
    </g>
</svg>