<?xml version="1.0" encoding="UTF-8"?>
<svg width="24px" height="24px" viewBox="0 0 24 24" version="1.1" xmlns="http://www.w3.org/2000/svg" xmlns:xlink="http://www.w3.org/1999/xlink">
    <title>Ico_shoarma</title>
    <g id="Ico_shoarma" stroke="none" stroke-width="1" fill="none" fill-rule="evenodd">
        <g id="doner" fill="#000000" fill-rule="nonzero">
            <g id="Group-15" transform="translate(4.000000, 2.000000)">
                <path d="M8.01352163,0.5 C5.35285133,0.5 3.00140404,1.44489004 0.982416252,3.32236062 C0.654085946,3.62767722 0.506250527,4.08062458 0.591291029,4.52083111 L3.43192089,19.2395275 C3.51237788,19.6564146 3.7913444,20.0077431 4.17915022,20.1805878 C5.46924108,20.7555554 6.76575743,21.0444712 8.06505409,21.0444712 C9.36351798,21.0444712 10.6247832,20.7558779 11.8439439,20.1808403 C12.2190969,20.0038931 12.4872915,19.6585538 12.5658125,19.2512716 L15.4091606,4.51849107 C15.4937342,4.08027374 15.3475927,3.62930394 15.0220921,3.32394926 C13.0189011,1.44537786 10.6748084,0.5 8.01352163,0.5 Z M8.01352163,1.5 C10.4182607,1.5 12.5184893,2.34702696 14.3379768,4.05332316 C14.413063,4.12376209 14.4467974,4.22786118 14.4272795,4.32899325 L11.583913,19.0618694 C11.5657842,19.1559018 11.5039152,19.2355671 11.4173485,19.2763978 C10.3302138,19.789163 9.21441762,20.0444712 8.06505409,20.0444712 C6.90944655,20.0444712 5.7510587,19.786336 4.58623811,19.2671988 C4.49674784,19.227313 4.43236914,19.1462349 4.41380203,19.0500297 L1.57315494,4.33124406 C1.55352201,4.22961545 1.5876277,4.12512033 1.66339232,4.05466629 C3.4992902,2.34745227 5.60825448,1.5 8.01352163,1.5 Z" id="Rectangle"></path>
                <path d="M7.20590463,2.19906851 C7.75137738,2.57562099 8.27802001,2.79912861 8.78583251,2.86959135 C9.29364501,2.94005409 9.88421492,2.89230268 10.5575422,2.72633714 C10.8728002,3.07091826 11.2184532,3.37012198 11.5945014,3.62394832 C11.7945736,3.75899379 12.073979,3.87868452 12.4327175,3.98302051 L12.8824747,3.93942111 C12.9880723,3.93005315 13.0958597,3.92086278 13.2058414,3.91184854 L13.8920967,3.85986506 L14.6312199,3.81203892 L14.6908955,4.81025675 L13.974679,4.85656641 L13.3106739,4.90670188 L12.6990866,4.96059331 C12.601535,4.96988433 12.5061761,4.97932894 12.4130142,4.98892569 L11.8804409,5.04832011 L11.4008016,5.11129591 L10.9743029,5.17778323 L10.6011512,5.24771225 C10.5434163,5.25965001 10.4879128,5.27172827 10.434645,5.28394557 L10.1419011,5.35890618 C8.57720028,5.80978682 7.06338607,6.98038669 6.56274822,8.49400168 L6.49123945,8.72274065 L6.41477722,8.99153382 L6.29082251,9.46973055 L6.15579037,10.0378059 L6.00972153,10.6956137 L5.79786526,11.7120225 L5.505702,13.2059724 L5.31589356,14.2212502 L5.0459712,15.713377 L4.68163255,17.8005143 L4.44873606,19.1709257 L3.46262211,19.0048556 L3.84864468,16.7477395 L4.20451981,14.7400574 L4.46764044,13.3130498 L4.7116839,12.0449012 L4.9367467,10.9352653 L5.14292538,9.98379609 L5.23896333,9.56726581 L5.41699681,8.85239757 L5.53828229,8.41949431 L5.61333351,8.17997668 C5.66424766,8.0260442 5.72300606,7.87546601 5.7890047,7.7284344 L5.92863939,7.93098712 C5.1919069,6.83244599 4.44851939,6.07446759 3.70779913,5.65162764 C3.04155126,5.27130025 2.33103599,5.00811514 1.57415915,4.86151568 L1.24693879,4.80582362 L1.39248429,3.81647206 C1.8847876,3.88889579 2.36144258,4.00346609 2.82207963,4.16008473 C3.00391145,4.12154816 3.16061584,4.06760902 3.29274357,3.99872296 C3.67139942,3.80130709 3.99218768,3.46016126 4.25510835,2.97528546 C4.89882915,3.00519192 5.44082134,2.96996055 5.88108491,2.86959135 C6.32134849,2.76922214 6.76295506,2.54571453 7.20590463,2.19906851 Z M7.60767132,16.1002329 C7.84697208,16.1044099 8.03676769,16.3481837 8.03159168,16.6447168 C8.02641568,16.94125 7.82822811,17.1782514 7.58892735,17.1740744 C7.34962659,17.1698974 7.15983098,16.9261237 7.16500699,16.6295905 C7.17018299,16.3330574 7.36837057,16.0960559 7.60767132,16.1002329 Z M10.7509015,13.6321663 L10.8433143,13.6395498 C11.1845089,13.6935897 11.4148259,14.0295722 11.3577417,14.3899877 C11.3006575,14.7504031 10.9777887,14.9987696 10.6365941,14.9447297 C10.2953995,14.8906898 10.0650825,14.5547073 10.1221667,14.1942918 C10.1792509,13.8338763 10.5021197,13.5855099 10.8433143,13.6395498 Z M10.9531925,8.77706616 L11.0382948,8.78231165 C11.3794894,8.83635156 11.5936918,9.2740772 11.5167293,9.75999923 C11.4397669,10.2459213 11.1007835,10.5960309 10.7595889,10.541991 C10.4183943,10.4879511 10.2041919,10.0502254 10.2811544,9.56430338 C10.3581169,9.07838136 10.6971002,8.72827173 11.0382948,8.78231165 Z M3.74780018,8.15407257 C3.98419075,8.11663198 4.21343381,8.32374459 4.25982888,8.61667154 C4.30622395,8.90959849 4.15220217,9.17741429 3.9158116,9.21485488 C3.67942103,9.25229546 3.45017797,9.04518285 3.4037829,8.7522559 C3.35738783,8.45932896 3.51140961,8.19151315 3.74780018,8.15407257 Z" id="Combined-Shape"></path>
            </g>
        </g>
    </g>
</svg>