<?xml version="1.0" encoding="UTF-8"?>
<svg width="24px" height="24px" viewBox="0 0 24 24" version="1.1" xmlns="http://www.w3.org/2000/svg" xmlns:xlink="http://www.w3.org/1999/xlink">
    <title>Ico_pizza</title>
    <g id="Ico_pizza" stroke="none" stroke-width="1" fill="none" fill-rule="evenodd">
        <g id="ico_pizza" fill="#000000" fill-rule="nonzero">
            <path d="M5.51946761,3.66838113 L5.0042076,3.62537673 L4.00813334,23.634299 L20.2739276,12.6326941 L19.9898998,12.2177898 C18.3217686,9.78100437 16.2168755,7.80645334 13.6789476,6.2976386 C11.1385573,4.78735999 8.41693607,3.91020832 5.51946761,3.66838113 Z M5.95068395,4.71433035 L6.45794067,4.77901984 C8.82321113,5.11100229 11.0586714,5.90324087 13.1679281,7.15720774 L13.6155069,7.4313397 C15.5339309,8.64156646 17.1783124,10.1420225 18.5506504,11.9345861 L18.874684,12.3713304 L5.10568395,21.6833304 L5.95068395,4.71433035 Z" id="Path-5"></path>
            <path d="M7.24311631,16.0607826 C7.59896668,17.6021399 6.69749719,19.1402829 5.21015191,19.6006765 L5.48957899,13.9727777 C6.3437433,14.3351911 7.01842475,15.0875366 7.24311631,16.0607826 Z M13.7801697,15.8166842 L8.97965034,19.0637349 C8.94561002,18.9648076 8.91639576,18.8631407 8.89233954,18.7589418 C8.51962843,17.1445526 9.52620739,15.5336895 11.1405966,15.1609784 C12.111152,14.936908 13.0804329,15.2113545 13.7801697,15.8166842 Z M18.5506504,11.9345861 L18.7335305,12.180584 C18.4385151,12.3786442 18.1030666,12.5272614 17.736236,12.611951 C16.1218468,12.9846621 14.5109837,11.9780831 14.1382726,10.3636939 C13.9478363,9.53882354 14.1174895,8.71487372 14.5443225,8.05653466 C16.071166,9.14660194 17.4056043,10.4389138 18.5506504,11.9345861 Z M9.67609824,7.6371225 L9.90582353,7.72563197 L10.1290725,7.82939867 C11.5075228,8.52781798 12.203023,9.9916831 11.6905103,11.1990875 C11.1512089,12.4696018 10.3280393,12.5819382 9.90517306,12.4895018 L9.79583775,12.458343 C9.69857707,12.4232593 9.63931334,12.3788717 9.63400391,12.3474171 C9.62630523,12.301808 9.65256068,12.2504981 9.69630549,12.1872571 L9.86354326,11.9555112 C9.94655495,11.8310672 10.0313882,11.6743367 10.0790153,11.470552 C10.1343084,11.2339662 10.0723844,10.6924603 9.80994982,10.7033825 C9.58031953,10.7129395 9.39723035,11.0192069 9.25461204,11.332232 L9.19595002,11.4659541 L8.96591093,12.2509725 C8.91686963,12.418328 8.75856429,12.5262474 8.60309971,12.4983722 C8.38629004,12.459386 8.21003791,12.417724 8.07434331,12.3733861 L7.95216788,12.3281562 C7.80729289,12.2666604 7.61575344,12.149994 7.37754955,11.978157 C7.24950298,11.8856889 7.21716558,11.6968465 7.30348414,11.5453142 L7.70838053,10.8345183 C7.85829949,10.4813314 8.00485411,10.059484 7.8304085,9.8631171 C7.65596288,9.66675023 7.22342017,9.9983674 7.09164441,10.2024883 C6.97813853,10.3783091 6.92432614,10.5482072 6.89247335,10.6943669 L6.84194242,10.9756519 C6.8268384,11.0510501 6.80816768,11.1055796 6.77001127,11.1317244 C6.75638398,11.1410618 6.7302106,11.1424002 6.69525203,11.1351886 L6.61473564,11.1092017 C6.26973063,10.9646332 5.55572267,10.2959134 6.16748114,8.85470072 C6.6799939,7.64729633 8.21614542,7.13071119 9.67609824,7.6371225 Z" id="Shape"></path>
            <path d="M6.67680707,0.401081585 C6.2520508,0.360494923 5.75347497,0.530384118 5.39012632,0.815479099 C4.95982521,1.15310713 4.6606233,1.79850191 4.61739763,2.57404072 C4.58573688,3.1420861 4.72488306,3.74479441 5.02598911,4.38064247 L5.14926261,4.64096012 L5.43629525,4.6649163 C8.18193261,4.89407144 10.757349,5.72410274 13.1679281,7.15720774 C15.5809696,8.59177663 17.5786605,10.4657639 19.1647278,12.7826714 L19.3009025,12.9815937 L19.5413457,12.9989352 C20.2800196,13.0522106 20.9159213,12.9054011 21.4310827,12.5491579 C22.0650673,12.1107463 22.4766124,11.4072884 22.5634863,10.8544215 C22.6247616,10.4644641 22.487868,9.90462151 22.2731137,9.59872929 C20.26686,6.74105699 17.8866773,4.56135564 15.3305308,3.10656001 C12.9050434,1.72612716 9.60446324,0.680827412 6.67680707,0.401081585 Z M6.58168749,1.39654744 C9.36861654,1.66284639 12.5330519,2.66502883 14.8358945,3.97566005 C17.2626565,5.35681829 19.5326242,7.43558806 21.4546741,10.1733219 C21.5228416,10.2704185 21.5959816,10.569533 21.5756077,10.6991928 C21.5295983,10.991998 21.2611508,11.4508576 20.862312,11.7266618 L20.7396532,11.8025792 C20.5276622,11.9194263 20.2775807,11.9877108 19.9850221,12.0051503 L19.842684,12.0083304 L19.9898998,12.2177898 C18.3217686,9.78100437 16.2168755,7.80645334 13.6789476,6.2976386 L13.2287632,6.03769155 C10.9684459,4.770822 8.56727841,3.99697199 6.02895908,3.71765113 L5.81968395,3.69733035 L5.76146469,3.54235361 C5.64784234,3.21128034 5.60037816,2.90724439 5.61584798,2.62969066 C5.64390237,2.12634928 5.81798128,1.7508516 6.00742128,1.6022109 C6.15091275,1.4896229 6.34828306,1.4117536 6.49822453,1.39734638 L6.58168749,1.39654744 Z" id="Path-5-Copy"></path>
        </g>
    </g>
</svg>