<?xml version="1.0" encoding="UTF-8"?>
<svg width="24px" height="24px" viewBox="0 0 24 24" version="1.1" xmlns="http://www.w3.org/2000/svg" xmlns:xlink="http://www.w3.org/1999/xlink">
    <title>Ico_kapsalon</title>
    <g id="Ico_kapsalon" stroke="none" stroke-width="1" fill="none" fill-rule="evenodd">
        <g id="Group-18-Copy" fill="#000000" transform="translate(0.000000, 5.000000)">
            <path d="M22.5561592,8.7 L1.44273428,8.7 L2.45110118,14.7479884 C2.5234245,15.1819283 2.8988956,15.5 3.33885084,15.5 L20.6611492,15.5 C21.1011044,15.5 21.4765755,15.1819283 21.5489037,14.7479591 L22.5561592,8.7 Z M21.375,9.7 L20.576,14.5 L3.423,14.5 L2.623,9.7 L21.375,9.7 Z" id="Combined-Shape" fill-rule="nonzero"></path>
            <path d="M12,4 C13.1045695,4 14,4.8954305 14,6 C14,6.5453935 13.781694,7.03979889 13.427697,7.4006011 L3.26818814,7.4010775 C3.0976323,7.10666076 3,6.764732 3,6.4 C3,5.2954305 3.8954305,4.4 5,4.4 C5.58083423,4.4 6.10383844,4.64759974 6.46922285,5.04300945 C6.92184999,4.4114489 7.66287548,4 8.5,4 C9.24438379,4 9.91278173,4.32533411 10.3707626,4.84157109 C10.7317107,4.33237131 11.3270406,4 12,4 Z" id="Combined-Shape"></path>
            <path d="M22.8,6.9 L1.2,6.9 C0.813400675,6.9 0.5,7.21340068 0.5,7.6 L0.5,9 C0.5,9.38659932 0.813400675,9.7 1.2,9.7 L22.8,9.7 C23.1865993,9.7 23.5,9.38659932 23.5,9 L23.5,7.6 C23.5,7.21340068 23.1865993,6.9 22.8,6.9 Z M22.5,7.9 L22.5,8.7 L1.5,8.7 L1.5,7.9 L22.5,7.9 Z" id="Rectangle-Copy-27" fill-rule="nonzero"></path>
            <path d="M16.1663622,0.9 C17.194061,0.9 18.0151802,1.30106451 18.5860504,2.07957877 L18.651,2.175 L18.8174526,2.17640348 C19.7867294,2.20465275 20.5291406,2.49785522 21.0123027,3.07490706 L21.1191849,3.21312022 C21.5954811,3.88048573 21.6589873,4.66312126 21.3346979,5.51213142 L21.297,5.6 L21.3366677,5.65096046 C21.4546307,5.81767718 21.5492947,5.99503645 21.6199195,6.18239842 L21.6825038,6.37307092 C21.7898161,6.75486907 21.7588212,7.1357314 21.5947872,7.49539249 L21.516357,7.64817584 L20.6482354,7.15182416 C20.7477203,6.97782463 20.7689566,6.81851892 20.7198079,6.64365659 C20.6696009,6.46502907 20.5828937,6.29961867 20.4566535,6.14480454 L20.3545135,6.03063979 L20.1036648,5.77381396 L20.2668283,5.45402926 C20.619543,4.76274206 20.619543,4.23445 20.3052245,3.79404066 C20.0111743,3.38203028 19.46597,3.16616148 18.6221258,3.17414303 L18.4049156,3.18081801 L18.095627,3.19655403 L17.9437583,2.92665974 C17.5520143,2.2304699 16.9812776,1.9 16.1663622,1.9 C15.4177167,1.9 14.8602589,2.21667379 14.446235,2.89084206 L14.3532154,3.05278398 L14.1070587,3.51053703 L13.6591758,3.24684799 C12.9209838,2.81224075 12.3067017,2.81224075 11.7236035,3.22430672 C11.1538842,3.62691795 10.8363773,4.17749717 10.7597239,4.9109617 L10.7447815,5.11555806 L9.74570327,5.07263094 C9.79467182,3.93294585 10.2665142,3.02950723 11.1464836,2.40764726 C11.9027991,1.87317151 12.7399596,1.77885226 13.6061761,2.1120998 L13.729,2.164 L13.8163766,2.04491615 C14.3560228,1.34497238 15.0795643,0.957726075 15.9603298,0.905976315 L16.1663622,0.9 Z" id="Path-11" fill-rule="nonzero"></path>
            <path d="M5.79272513,1.44926024 L4.39272513,1.44926024 C4.00612581,1.44926024 3.69272513,1.76266091 3.69272513,2.14926024 L3.69272513,6.74926024 C3.69272513,7.13585956 4.00612581,7.44926024 4.39272513,7.44926024 L5.79272513,7.44926024 C6.17932446,7.44926024 6.49272513,7.13585956 6.49272513,6.74926024 L6.49272513,2.14926024 C6.49272513,1.76266091 6.17932446,1.44926024 5.79272513,1.44926024 Z M5.492,2.449 L5.492,6.449 L4.692,6.449 L4.692,2.449 L5.492,2.449 Z" id="Rectangle" fill-rule="nonzero" transform="translate(5.092725, 4.449260) rotate(-28.000000) translate(-5.092725, -4.449260) "></path>
            <path d="M3.10869619,3.43955043 L1.70869619,3.43955043 C1.32209686,3.43955043 1.00869619,3.75295111 1.00869619,4.13955043 L1.00869619,6.73955043 C1.00869619,7.12614976 1.32209686,7.43955043 1.70869619,7.43955043 L3.10869619,7.43955043 C3.49529551,7.43955043 3.80869619,7.12614976 3.80869619,6.73955043 L3.80869619,4.13955043 C3.80869619,3.75295111 3.49529551,3.43955043 3.10869619,3.43955043 Z M2.808,4.439 L2.808,6.439 L2.008,6.439 L2.008,4.439 L2.808,4.439 Z" id="Rectangle-Copy-30" fill-rule="nonzero" transform="translate(2.408696, 5.439550) rotate(-41.000000) translate(-2.408696, -5.439550) "></path>
            <path d="M8.48752447,0.512814968 L7.08752447,0.512814968 C6.70092515,0.512814968 6.38752447,0.826215643 6.38752447,1.21281497 L6.38752447,6.81281497 C6.38752447,7.19941429 6.70092515,7.51281497 7.08752447,7.51281497 L8.48752447,7.51281497 C8.8741238,7.51281497 9.18752447,7.19941429 9.18752447,6.81281497 L9.18752447,1.21281497 C9.18752447,0.826215643 8.8741238,0.512814968 8.48752447,0.512814968 Z M8.187,1.512 L8.187,6.512 L7.387,6.512 L7.387,1.512 L8.187,1.512 Z" id="Rectangle-Copy-29" fill-rule="nonzero" transform="translate(7.787524, 4.012815) rotate(-13.000000) translate(-7.787524, -4.012815) "></path>
        </g>
    </g>
</svg>