<?xml version="1.0" encoding="UTF-8"?>
<svg width="24px" height="24px" viewBox="0 0 24 24" version="1.1" xmlns="http://www.w3.org/2000/svg" xmlns:xlink="http://www.w3.org/1999/xlink">
    <title>Ico_drinks</title>
    <g id="Ico_drinks" stroke="none" stroke-width="1" fill="none" fill-rule="evenodd">
        <g id="drinks" fill="#000000" fill-rule="nonzero">
            <path d="M18.1337521,1.42108547e-14 L18.1337521,2.55405405 L17.7176579,2.55463662 C17.7515981,2.8936369 17.8255353,3.23740058 17.939899,3.5864781 L17.969993,3.67211218 L18.056815,3.88755659 L18.1986943,4.20555716 L18.6186411,5.09691493 L18.7878294,5.46177646 L18.9570865,5.84103964 L19.0627993,6.089529 C19.3425343,6.76307803 19.5069897,7.29689883 19.5400818,7.73306204 L19.5463023,7.89212771 L19.5463023,13.3417678 C19.5463023,13.4642954 19.5335384,13.5897631 19.5080049,13.7323713 L19.4782145,13.8812191 L19.3974248,14.2081656 L19.2647243,14.7102852 L19.1880532,15.0342578 L19.1504625,15.2145888 L19.0998171,15.4958584 C19.0292714,15.9306306 18.9915171,16.3848316 18.9915171,16.8848897 C18.9915171,17.4851127 19.0532555,18.0470988 19.1767777,18.6939302 L19.2436877,19.0249862 L19.4969525,20.1595942 C19.5998284,20.6475 19.6499261,21.0088699 19.6499261,21.3546769 C19.6499261,22.6892616 18.4847668,23.6308228 17.0238124,23.7012764 L16.8471337,23.7055189 L15.3027924,23.7055189 C13.7602363,23.7055189 12.5,22.742645 12.5,21.3546769 C12.5,21.0665044 12.5347901,20.7675243 12.6063782,20.3913895 L12.6537629,20.1559193 L12.841358,19.3211749 C13.0592602,18.351002 13.158409,17.6718731 13.158409,16.8848897 C13.158409,16.4253471 13.1267578,16.0063858 13.0675289,15.6071657 L13.018,15.3111266 L12.9824124,15.1304016 L12.9440455,14.9547237 L12.8871475,14.7179711 L12.7162191,14.0682888 L12.6850833,13.9404277 C12.6495858,13.7877993 12.6257636,13.6562545 12.6133354,13.5283669 L12.6046949,13.401053 L12.6036238,7.89212771 C12.6036238,7.45185175 12.7548515,6.90751469 13.0412324,6.20136752 L13.1416763,5.95991295 L13.2508292,5.70894748 L13.3629789,5.45985496 L13.4766268,5.21371251 L13.9022201,4.31132488 L14.0731259,3.93393859 L14.1544263,3.73861144 L14.2100271,3.5864781 C14.3248,3.23615146 14.3988472,2.89119477 14.4325932,2.55433955 L14.025644,2.55405405 L14.025644,1.42108547e-14 L18.1337521,1.42108547e-14 Z M18.546,12.621 L13.603,12.621 L13.6035268,13.3319186 L13.609386,13.4412131 L13.6199364,13.519678 L13.6578642,13.7087611 L13.856538,14.4725752 L13.8979267,14.6417544 L13.9614118,14.9267876 L14.0000665,15.1226689 C14.1030358,15.6753119 14.158409,16.2474852 14.158409,16.8848897 C14.158409,17.6505364 14.0751916,18.3162471 13.898309,19.1656181 L13.816737,19.5417055 L13.6314591,20.3659097 C13.5416714,20.7917427 13.5,21.0923311 13.5,21.3546769 C13.5,22.0800576 14.1803759,22.6401925 15.1321064,22.7001908 L15.3027924,22.7055189 L16.8471337,22.7055189 C17.8871518,22.7055189 18.6499261,22.122727 18.6499261,21.3546769 C18.6499261,21.1360554 18.6209876,20.8908766 18.5598378,20.5709186 L18.5192563,20.3695846 L18.2661825,19.2358733 C18.0840466,18.3784003 17.9915171,17.6646423 17.9915171,16.8848897 C17.9915171,16.4412349 18.0185259,16.0275763 18.0702798,15.6275926 L18.1136995,15.3299137 L18.1498596,15.1226689 L18.2528504,14.6382212 L18.2948628,14.4667035 L18.4763558,13.7746164 L18.5221402,13.5650748 C18.5331172,13.504998 18.5401969,13.4528005 18.543697,13.4066611 L18.5463023,13.3417678 L18.546,12.621 Z M16.715,2.554 L15.435,2.554 L15.399362,2.88406855 C15.3780027,3.03351827 15.3503817,3.18331273 15.3165201,3.33342757 L15.2610499,3.55883707 L15.1603276,3.89781244 L15.0880625,4.09689026 L14.9887107,4.33603838 L14.9030707,4.52858253 L14.382821,5.63655449 L14.2728788,5.87465528 L14.1653073,6.11353162 L14.0602693,6.35509919 C13.7909508,6.98777894 13.6365228,7.47284479 13.6083304,7.79193627 L13.6036238,7.89212771 L13.603,8.27 L18.546,8.27 L18.5463023,7.89212771 C18.5463023,7.63060056 18.4356052,7.22059775 18.2247167,6.68413129 L18.1409576,6.47707138 L18.0384932,6.23622382 L17.8793849,5.8797715 L17.2908181,4.6247384 L17.1344628,4.27391827 C17.0724018,4.12819209 17.0247908,4.00523159 16.9895985,3.89781244 C16.8875997,3.58647655 16.8120665,3.27638737 16.763176,2.96777163 L16.7231729,2.65965544 L16.715,2.554 Z M17.133,1 L15.025,1 L15.025,1.554 L17.133,1.554 L17.133,1 Z" id="Shape"></path>
            <path d="M9.84448425,12.9 L9.85960533,14.3024579 L9.67066777,14.491 L10.0857763,15.0714509 L10.0857763,21.7152587 C10.0857763,22.5204671 9.16886612,23.4275395 8.28877187,23.5121015 L8.15715306,23.5185014 L4.73929101,23.5185014 C3.88637789,23.5185014 2.95200535,22.6909415 2.82467901,21.8737073 L2.81141114,21.7448783 L2.81064944,15.0714765 L3.22566777,14.491 L3.04130462,14.3069238 L3.02613539,12.9 L9.84448425,12.9 Z M9.08564944,15.729 L3.80964944,15.729 L3.81079321,21.7199708 C3.82317318,21.9687524 4.21430752,22.368248 4.55865976,22.4852814 L4.65109441,22.5098709 L4.73929101,22.5185014 L8.15715306,22.5185014 C8.5052963,22.5185014 9.00196651,22.0733028 9.07631729,21.7839911 L9.08577631,21.7152587 L9.08564944,15.729 Z M8.84766777,13.9 L4.04766777,13.9 L4.53262917,14.3840348 L3.92664944,15.229 L8.96864944,15.229 L8.36381491,14.3840348 L8.84766777,13.9 Z" id="Shape"></path>
            <path d="M5.46328278,9.75 C5.87749634,9.75 6.21328278,10.0857864 6.21328278,10.5 C6.21328278,10.9142136 5.87749634,11.25 5.46328278,11.25 C5.04906922,11.25 4.71328278,10.9142136 4.71328278,10.5 C4.71328278,10.0857864 5.04906922,9.75 5.46328278,9.75 Z M5.46328278,10.25 C5.32521159,10.25 5.21328278,10.3619288 5.21328278,10.5 C5.21328278,10.6380712 5.32521159,10.75 5.46328278,10.75 C5.60135397,10.75 5.71328278,10.6380712 5.71328278,10.5 C5.71328278,10.3619288 5.60135397,10.25 5.46328278,10.25 Z M6.96328278,5.75 C7.65363872,5.75 8.21328278,6.30964406 8.21328278,7 C8.21328278,7.69035594 7.65363872,8.25 6.96328278,8.25 C6.27292684,8.25 5.71328278,7.69035594 5.71328278,7 C5.71328278,6.30964406 6.27292684,5.75 6.96328278,5.75 Z M6.96328278,6.25 C6.54906922,6.25 6.21328278,6.58578644 6.21328278,7 C6.21328278,7.41421356 6.54906922,7.75 6.96328278,7.75 C7.37749634,7.75 7.71328278,7.41421356 7.71328278,7 C7.71328278,6.58578644 7.37749634,6.25 6.96328278,6.25 Z" id="Combined-Shape"></path>
        </g>
    </g>
</svg>