<?xml version="1.0" encoding="UTF-8"?>
<svg width="24px" height="24px" viewBox="0 0 24 24" version="1.1" xmlns="http://www.w3.org/2000/svg" xmlns:xlink="http://www.w3.org/1999/xlink">
    <title>Ico_basket</title>
    <g id="Ico_basket" stroke="none" stroke-width="1" fill="none" fill-rule="evenodd">
        <g id="basket" fill="#000000" fill-rule="nonzero">
            <g id="Group-21" transform="translate(2.000000, 2.500000)">
                <path d="M19.209902,10 L0.790098049,10 L2.47755431,18.4372813 C2.5429937,18.7644782 2.83028407,19 3.16396078,19 L16.8360392,19 C17.1697159,19 17.4570063,18.7644782 17.5224457,18.4372813 L19.209902,10 Z M17.989,11 L16.589,18 L3.41,18 L2.01,11 L17.989,11 Z" id="Combined-Shape"></path>
                <path d="M9,7 L9,6 L0.2,6 C-0.186599325,6 -0.5,6.31340068 -0.5,6.7 L-0.5,10.3 C-0.5,10.6865993 -0.186599325,11 0.2,11 L19.8,11 C20.1865993,11 20.5,10.6865993 20.5,10.3 L20.5,6.7 C20.5,6.31340068 20.1865993,6 19.8,6 L11,6 L11,7 L10.9936973,7.12072045 C10.9466916,7.60664334 10.5163356,8 10,8 L9.87927955,7.99369731 C9.39335666,7.94669156 9,7.51633564 9,7 Z M0.5,10 L0.5,7 L8,7 C8,8.0329657 8.7863135,8.89324011 9.80797871,8.99086621 L9.97626044,8.99943612 C11.0329657,9 11.8932401,8.2136865 11.9908662,7.19202129 L11.999,7 L19.5,7 L19.5,10 L0.5,10 Z" id="Combined-Shape"></path>
                <path d="M11.3,0 L8.7,0 C8.31340068,0 8,0.313400675 8,0.7 L8,7 C8,8.1045695 8.8954305,9 10,9 C11.1045695,9 12,8.1045695 12,7 L12,0.7 C12,0.313400675 11.6865993,0 11.3,0 Z M9,1 L11,1 L11,7 C11,7.55228475 10.5522847,8 10,8 L9.88337887,7.99327227 C9.38604019,7.93550716 9,7.51283584 9,7 L9,1 Z" id="Rectangle"></path>
            </g>
        </g>
    </g>
</svg>