<?xml version="1.0" encoding="UTF-8"?>
<svg width="12px" height="12px" viewBox="0 0 12 12" version="1.1" xmlns="http://www.w3.org/2000/svg" xmlns:xlink="http://www.w3.org/1999/xlink">
    <title>Ico_small_phone</title>
    <g id="Ico_small_phone" stroke="none" stroke-width="1" fill="none" fill-rule="evenodd">
        <g id="Group-8" fill="#FFFFFF">
            <path d="M3.90866528,0.675473288 L3.96374395,0.7479443 L4.99564069,2.40777078 C5.08203342,2.54851367 5.08192948,2.72012302 5.00157251,2.85881693 L4.94377792,2.93757317 L3.96374395,4.01165575 C4.19716535,4.85298629 4.59447835,5.67953618 5.15568296,6.49130544 C5.71688758,7.3030747 6.36515736,7.98893569 7.10049231,8.5488884 L8.45444755,8.01886464 L8.54868456,7.99313245 C8.68058396,7.97203559 8.81385079,8.0111599 8.91273097,8.10065096 L8.96764664,8.16031077 L10.1474294,9.71849798 L10.1953485,9.79588964 C10.2745172,9.95767119 10.2541745,10.156498 10.1434261,10.3033741 L10.0805602,10.3720709 L9.39002803,10.9961002 L9.27532221,11.0877535 C8.958438,11.310629 8.55908002,11.3605465 8.21026326,11.2208799 C6.44533977,10.4563131 4.94719191,9.16667309 3.71581968,7.3519598 C2.48444746,5.53724651 1.87191414,3.80648289 1.87821974,2.15966896 C1.81617746,1.7332462 2.01106102,1.3143904 2.37289853,1.07142925 L2.4995711,0.997187722 L3.32961729,0.576152509 C3.52683482,0.476115272 3.7655566,0.52160439 3.90866528,0.675473288 Z" id="Path"></path>
        </g>
    </g>
</svg>