<svg xmlns="http://www.w3.org/2000/svg" width="290" height="50" viewBox="0 0 290 50">
    <g fill="none" fill-rule="evenodd">
        <g fill="#FFF" fill-rule="nonzero">
            <g>
                <path d="M30.02 0l1.15.016 1.068.03.991.047c.159.009.315.018.468.029l.884.069c2.554.23 4.242.662 5.711 1.283l.483.215.236.112.469.235c.077.04.155.081.232.123 2.636 1.41 4.704 3.479 6.114 6.115l.122.233.235.468.221.476c.679 1.528 1.147 3.26 1.39 5.956l.068.885.054.954c.008.165.015.333.021.504l.031 1.069.016 1.15.001.302v9.149l-.007 1.195-.01.564-.03 1.069-.047.99-.029.468-.069.885c-.23 2.555-.662 4.243-1.283 5.713l-.214.482c-.037.08-.075.159-.113.237l-.235.468c-.04.078-.08.156-.122.233-1.41 2.636-3.478 4.705-6.114 6.115l-.232.123-.469.235-.476.221c-1.527.679-3.258 1.147-5.954 1.39l-.884.068-.954.054-.505.022-1.068.03-1.15.016-.608.002h-8.84l-1.194-.008c-.192-.002-.38-.006-.565-.01l-1.068-.03-.99-.047c-.16-.009-.315-.018-.468-.029l-.884-.069c-2.554-.23-4.242-.662-5.711-1.283l-.483-.215c-.08-.036-.158-.074-.237-.112l-.468-.235c-.077-.04-.155-.081-.232-.123-2.636-1.41-4.704-3.479-6.114-6.115l-.123-.233-.234-.468-.222-.476C.901 39.019.433 37.287.191 34.59l-.07-.885-.053-.954-.022-.504-.03-1.069L0 30.03v-10.06l.016-1.15.03-1.069.047-.99c.009-.16.018-.315.029-.468l.069-.885c.23-2.555.661-4.243 1.283-5.712l.214-.483c.037-.08.074-.158.113-.237l.234-.468c.04-.078.082-.156.123-.233 1.41-2.636 3.478-4.705 6.114-6.115l.232-.123.468-.235.477-.221C10.976.9 12.707.433 15.403.19l.884-.068.954-.054.504-.022 1.068-.03L19.964 0H30.02zm-5.087 10.832c-3.556 0-6.468 1.677-8.735 5.03l-.26.395-.053.09c-5.451.63-8.252 3.192-8.384 7.124-.107 3.196 1.605 5.85 5.033 7.153.815.31 1.75.414 2.752.414l.035.273.088.582.126.734.141.732.225 1.083.18.805.11.459.188.708.145.482.097.283c.119.323.236.56.346.655l.054.035.034.013.177.053.263.062.517.099.6.094.552.073.62.071.386.04.724.063.902.062.603.033.76.03 1.072.025.82.004.976-.009.798-.02 1.004-.043.931-.058.648-.05.406-.038.66-.069.346-.041.551-.073.601-.094.517-.099.263-.062.176-.053.056-.024c.078-.047.161-.173.246-.354l.064-.147.068-.178.098-.283.145-.482.118-.437.114-.455.128-.55.188-.86.206-1.01c.132-.683.237-1.332.312-1.947 1.075-.06 2.112-.31 2.977-.663 3.353-1.367 4.937-3.962 4.835-7.021-.125-3.742-2.78-6.346-7.936-7.067l-.449-.057-.058-.1c-2.378-3.61-5.413-5.415-9.107-5.415zm6.02 19.49c.242.098.459.177.648.237l.211.062.25.056.594.111-.004.136-.03.353-.086.726-.06.402-.116.686-.13.712-.087.447-.158.765-.108.467-.102.382-.038.108-.03.063-.014.014-.03.01-.17.04-.463.08-.554.081-.723.095-.688.08-.898.09-.83.07-.454.03-.66.037-.514.02-.776.02c-.577 0-1.187-.023-1.796-.06l-.808-.056-.897-.079-.932-.099-.428-.051-.758-.1-.38-.056-.44-.073-.243-.048-.071-.02c-.012-.008-.023-.021-.034-.043l-.034-.085-.061-.204-.138-.568-.127-.595-.202-1.038-.147-.834-.085-.533-.058-.433-.06-.547-.023-.363.54-.116.334-.081c.172-.048.37-.114.596-.2l.234-.09.196.077.361.137.514.182.64.209.641.19.595.158.624.146.535.106.324.055.216.032c.469.066.936.106 1.383.105 1.76 0 3.763-.47 6.008-1.405zm64.442-12.085l.487.004c1.278.021 2.399.126 3.362.315 1.084.213 2.004.494 2.758.844.755.35 1.37.745 1.842 1.184.474.44.844.882 1.112 1.328.268.446.45.875.545 1.287.096.412.145.769.145 1.07v.227h-5.085l-.018-.056c-.037-.106-.11-.276-.218-.51-.13-.282-.391-.57-.782-.865-.391-.295-.947-.556-1.668-.782-.72-.227-1.69-.34-2.912-.34-1.153 0-2.093.117-2.82.35-.727.233-1.3.539-1.719.916-.418.378-.706.803-.864 1.277-.158.473-.237.95-.237 1.43v.248l.01.274c.028.369.11.751.247 1.146.172.495.474.948.906 1.36.432.411 1.015.75 1.75 1.018.734.268 1.657.402 2.768.402 1.235 0 2.216-.124 2.943-.37.728-.248 1.283-.533 1.668-.855.384-.323.634-.632.75-.927.118-.295.19-.483.217-.566h5.084v.227l-.006.196c-.017.273-.066.585-.148.936-.103.44-.292.889-.566 1.349-.275.46-.652.912-1.132 1.359-.48.446-1.102.844-1.863 1.194-.762.35-1.681.635-2.758.854-1.077.22-2.343.33-3.798.33h-.844l-.486-.005c-1.278-.025-2.395-.15-3.353-.376-1.077-.254-1.996-.59-2.758-1.01-.761-.418-1.379-.895-1.852-1.43-.474-.535-.844-1.088-1.112-1.658-.267-.57-.45-1.132-.545-1.688-.096-.556-.144-1.06-.144-1.513v-.597l.005-.286c.014-.387.057-.803.129-1.248.089-.556.26-1.112.514-1.668.254-.556.614-1.098 1.08-1.626.467-.529 1.081-.996 1.843-1.4.762-.405 1.688-.731 2.779-.978 1.09-.247 2.39-.371 3.9-.371h.844zm93.66 0l.474.004c1.404.022 2.625.144 3.663.367 1.152.247 2.13.576 2.933.988.802.412 1.444.882 1.924 1.41.48.529.854 1.07 1.122 1.627.268.556.442 1.112.525 1.667.082.556.123 1.06.123 1.514v.617l-.005.278c-.013.378-.052.786-.118 1.225-.083.55-.254 1.109-.515 1.678-.26.57-.634 1.123-1.122 1.658-.487.535-1.128 1.012-1.924 1.43-.796.42-1.774.756-2.933 1.01-1.16.254-2.542.38-4.148.38h-.885l-.479-.003c-1.416-.023-2.645-.149-3.689-.377-1.16-.254-2.137-.59-2.933-1.01-.796-.418-1.437-.895-1.924-1.43-.488-.535-.862-1.088-1.122-1.658-.261-.57-.432-1.129-.515-1.678-.082-.549-.123-1.05-.123-1.503v-.617l.005-.278c.013-.379.052-.79.118-1.236.083-.555.254-1.111.515-1.667.26-.556.634-1.098 1.122-1.627.487-.528 1.128-.998 1.924-1.41.796-.412 1.774-.741 2.933-.988 1.16-.247 2.549-.371 4.168-.371h.885zm42.786 0l.486.004c1.278.021 2.4.126 3.363.315 1.084.213 2.003.494 2.758.844.755.35 1.369.745 1.842 1.184.474.44.844.882 1.112 1.328.267.446.45.875.545 1.287.096.412.144.769.144 1.07v.227h-5.084l-.018-.056c-.037-.106-.11-.276-.219-.51-.13-.282-.39-.57-.782-.865-.39-.295-.946-.556-1.667-.782-.72-.227-1.691-.34-2.912-.34-1.153 0-2.093.117-2.82.35-.728.233-1.3.539-1.719.916-.419.378-.707.803-.864 1.277-.158.473-.237.95-.237 1.43v.248l.01.274c.028.369.11.751.247 1.146.172.495.473.948.906 1.36.432.411 1.015.75 1.75 1.018.733.268 1.656.402 2.768.402 1.235 0 2.216-.124 2.943-.37.727-.248 1.283-.533 1.667-.855.385-.323.635-.632.752-.927.116-.295.188-.483.216-.566h5.084v.227l-.006.196c-.017.273-.066.585-.149.936-.102.44-.291.889-.566 1.349-.274.46-.651.912-1.132 1.359-.48.446-1.1.844-1.862 1.194s-1.681.635-2.759.854c-1.077.22-2.343.33-3.797.33h-.844l-.487-.005c-1.277-.025-2.394-.15-3.352-.376-1.077-.254-1.996-.59-2.758-1.01-.762-.418-1.38-.895-1.852-1.43-.474-.535-.844-1.088-1.112-1.658-.268-.57-.45-1.132-.545-1.688-.096-.556-.144-1.06-.144-1.513v-.597l.005-.286c.014-.387.057-.803.128-1.248.09-.556.261-1.112.515-1.668.254-.556.614-1.098 1.08-1.626.467-.529 1.081-.996 1.843-1.4.761-.405 1.688-.731 2.778-.978 1.091-.247 2.391-.371 3.9-.371h.845zm-149.843.268v3.48H70.595v2.264h11.136v3.5H70.595v2.512h11.61v3.562H65.86V18.505h16.137zm43.178 0v3.623h-6.607v11.695h-4.837V22.128h-6.587v-3.623h18.031zm7.242 0v4.694h5.97l.423.003c1.388.023 2.544.16 3.467.409 1.015.274 1.814.648 2.398 1.122.583.473.988 1.022 1.214 1.647.226.624.34 1.294.34 2.007v.206l-.007.304c-.027.602-.135 1.177-.323 1.724-.22.639-.62 1.194-1.204 1.668-.583.474-1.386.848-2.408 1.122-1.022.275-2.33.412-3.921.412h-10.745V18.505h4.796zm42.416 0v15.318h-4.796V22.21h-9.447v11.612h-4.796V18.505h19.04zm43.61 0v3.48h-11.403v2.264h11.136v3.5H207.04v2.512h11.609v3.562h-16.343V18.505h16.137zm43.178 0v3.623h-6.607v11.695h-4.838V22.128h-6.586v-3.623h18.03zm7.242 0v4.694h5.97l.423.003c1.388.023 2.543.16 3.466.409 1.016.274 1.815.648 2.398 1.122.583.473.988 1.022 1.215 1.647.226.624.34 1.294.34 2.007v.206l-.007.304c-.027.602-.135 1.177-.323 1.724-.22.639-.62 1.194-1.204 1.668-.583.474-1.386.848-2.408 1.122-1.023.275-2.33.412-3.921.412h-10.745V18.505h4.796zm20.827 11.715v3.603h-4.98V30.22h4.98zm-151.448-3.583h-5.825v3.727h5.825c.59 0 1.078-.048 1.462-.144.384-.096.69-.23.916-.402.226-.171.384-.37.473-.597.09-.226.134-.463.134-.71v-.062l-.008-.192c-.017-.187-.059-.364-.126-.528-.09-.22-.247-.412-.473-.577-.227-.165-.532-.292-.916-.38-.384-.09-.872-.135-1.462-.135zm50.358-4.694c-1.317 0-2.38.127-3.19.38-.81.255-1.437.577-1.883.969-.446.39-.745.823-.896 1.297-.15.473-.226.93-.226 1.369v.247l.01.266c.025.36.1.734.227 1.124.157.487.463.937.916 1.348.452.412 1.084.752 1.893 1.02.81.267 1.86.4 3.15.4 1.29 0 2.336-.13 3.138-.39.803-.261 1.431-.594 1.884-.999.453-.405.761-.85.926-1.338.165-.487.247-.95.247-1.39v-.288l-.01-.266c-.025-.357-.1-.724-.227-1.103-.157-.474-.463-.906-.916-1.297-.452-.392-1.084-.714-1.893-.968-.81-.254-1.86-.381-3.15-.381zm86.088 4.694h-5.825v3.727h5.825c.59 0 1.077-.048 1.461-.144.385-.096.69-.23.916-.402.227-.171.385-.37.474-.597.089-.226.134-.463.134-.71v-.062l-.009-.192c-.016-.187-.058-.364-.125-.528-.09-.22-.247-.412-.474-.577-.226-.165-.531-.292-.916-.38-.384-.09-.87-.135-1.46-.135zM24.933 13.68c3.64 0 6.321 2.472 7.929 4.532l.18.235.219.296.328.471.284.434.321.527.305.542.103.195c.438-.011.64-.236.607-.675l-.02-.154-.119-.663h.077c3.344.703 5.032 2.197 5.032 4.68 0 2.1-1.009 3.468-2.191 4.268l-.21.135-.13.077-.13.073c-.174.094-.35.176-.524.248l-.26.1-.257.084-.127.036-.278.067-.21.04-.173.024-.167.017-.261.011c-1.113 0-1.833-.125-2.16-.376.818-.526 1.408-1.031 1.768-1.514.32-.429.402-.8.246-1.116l-.07-.115-.176-.271-1.033.658-.412.253-.27.161c-2.588 1.529-4.656 2.234-8.21 2.234-3.528 0-5.708-.747-8.31-2.29l-.439-.265-.875-.554-.302-.197-.176.271c-.243.338-.184.748.176 1.231.36.483.95.988 1.769 1.514-.295.226-.907.35-1.838.372l-.398.003-.186-.01-.224-.024-.175-.028-.15-.029-.278-.067-.255-.076-.129-.044c-.201-.072-.406-.157-.61-.258l-.305-.163-.13-.077c-1.27-.776-2.4-2.179-2.4-4.403 0-2.392 1.55-3.958 4.65-4.698l.364-.082.118-.024-.143.787c-.086.486.064.759.45.817l.138.012.058-.111.257-.462.347-.57.22-.339.316-.461.364-.495.158-.205c1.618-2.066 4.328-4.589 7.927-4.589zM290 18.505l-1.42 10.665h-2.758l-1.42-10.665H290z" transform="translate(-20 -20) translate(20 20)"/>
            </g>
        </g>
    </g>
</svg>
